<svg width="32" height="32" viewBox="0 0 32 32" fill="none" xmlns="http://www.w3.org/2000/svg">
    <g clip-path="url(#clip0_369_7514)">
        <path
            d="M6.58742 11.4125C5.8068 10.6319 5.8068 9.36563 6.58742 8.58438L14.5874 0.584375C14.9749 0.195313 15.4874 0 15.9999 0C16.5124 0 17.0237 0.195312 17.4137 0.585938L25.4137 8.58594C26.1943 9.36656 26.1943 10.6328 25.4137 11.4141C24.6324 12.1947 23.3662 12.1953 22.5855 11.4141L17.9999 6.83125V22C17.9999 23.1044 17.1043 24 15.9999 24C14.8955 24 13.9999 23.1044 13.9999 22V6.83125L9.41242 11.4125C8.63117 12.1938 7.36867 12.1938 6.58742 11.4125Z"
            fill="url(#paint0_linear_369_7514)" />
        <path opacity="0.4"
            d="M30 22H20C20 24.2094 18.2094 26 16 26C13.7906 26 12 24.2094 12 22H2C0.895625 22 0 22.8956 0 24V30C0 31.1044 0.895625 32 2 32H30C31.1044 32 32 31.1044 32 30V24C32 22.8937 31.1063 22 30 22ZM27 28.5C26.175 28.5 25.5 27.825 25.5 27C25.5 26.175 26.175 25.5 27 25.5C27.825 25.5 28.5 26.175 28.5 27C28.5 27.825 27.825 28.5 27 28.5Z"
            fill="url(#paint1_linear_369_7514)" />
    </g>
    <defs>
        <linearGradient id="paint0_linear_369_7514" x1="6.00195" y1="6.48251e-06" x2="30.1999" y2="6.63244"
            gradientUnits="userSpaceOnUse">
            <stop stop-color="#E901D2" />
            <stop offset="1" stop-color="#530367" />
        </linearGradient>
        <linearGradient id="paint1_linear_369_7514" x1="-2.91998e-06" y1="22" x2="19.7483" y2="42.7882"
            gradientUnits="userSpaceOnUse">
            <stop stop-color="#E901D2" />
            <stop offset="1" stop-color="#530367" />
        </linearGradient>
        <clipPath id="clip0_369_7514">
            <rect width="32" height="32" fill="white" />
        </clipPath>
    </defs>
</svg>