<svg width="32" height="25" viewBox="0 0 32 25" fill="none" xmlns="http://www.w3.org/2000/svg">
    <g clip-path="url(#clip0_369_7507)">
    <path d="M18.5698 20.5171C18.4441 20.6396 18.3584 20.7958 18.3236 20.966L17.6096 24.4494C17.5467 24.7562 17.8242 25.027 18.1391 24.966L21.7101 24.2689C21.8842 24.2348 22.0442 24.1516 22.1698 24.0288L28.4348 17.9166L24.8343 14.4039L18.5698 20.5171ZM31.4748 12.4732L30.4198 11.4434C29.7168 10.7576 28.5773 10.7576 27.8743 11.4434L25.9678 13.3039L29.5683 16.8166L31.4748 14.9566C32.1748 14.2683 32.1748 13.1561 31.4748 12.4732Z" fill="url(#paint0_linear_369_7507)"/>
    <path opacity="0.4" d="M11.155 12.4878C14.69 12.4878 17.555 9.69219 17.555 6.2439C17.555 2.79561 14.69 0 11.155 0C7.665 0 4.8 2.79561 4.8 6.2439C4.8 9.69219 7.665 12.4878 11.155 12.4878ZM13.735 14.8293H8.665C3.8805 14.8293 0 18.6195 0 23.2878C0 24.2195 0.776 24.9756 1.733 24.9756H16.053C15.9907 24.7058 15.9815 24.4239 16.0388 24.1444L16.7528 20.661C16.85 20.1867 17.0866 19.7556 17.4368 19.4141L19.7228 17.1839C18.165 15.7268 16.06 14.8293 13.735 14.8293Z" fill="url(#paint1_linear_369_7507)"/>
    </g>
    <defs>
    <linearGradient id="paint0_linear_369_7507" x1="17.6006" y1="10.929" x2="34.4206" y2="16.6013" gradientUnits="userSpaceOnUse">
    <stop stop-color="#E901D2"/>
    <stop offset="1" stop-color="#530367"/>
    </linearGradient>
    <linearGradient id="paint1_linear_369_7507" x1="-1.7997e-06" y1="6.74603e-06" x2="24.0369" y2="6.24409" gradientUnits="userSpaceOnUse">
    <stop stop-color="#E901D2"/>
    <stop offset="1" stop-color="#530367"/>
    </linearGradient>
    <clipPath id="clip0_369_7507">
    <rect width="32" height="24.9756" fill="white"/>
    </clipPath>
    </defs>
    </svg>
    